# xmcd
#
# Track frame offsets: 
#        150
#        20137
#        43469
#        74097
#        88373
#        104669
#        123776
#        146994
#        171413
#
# Disc length: 2554 seconds
#
# Revision: 0
# Processed by: cddbd v1.5.2PL0 Copyright (c) Steve Scherf et al.
# Submitted via: ExactAudioCopyFreeDBPlugin 1.0
#
DISCID=9709f809
DTITLE=Louisiana Red - At Onkel Pö's Carnegie Hall Hamburg 1977 [CD 2)
DYEAR=1977
DGENRE=Blues
TTITLE0=Sweet Blood Call
TTITLE1=Goin Down To Louisiana
TTITLE2=Rock Me
TTITLE3=Too Poor To Die
TTITLE4=Whos Been Foolin You
TTITLE5=Louise
TTITLE6=Recreation Blues
TTITLE7=Honky Tonk Slide
TTITLE8=Cant Get No Sleep At Night
EXTD=
EXTT0=
EXTT1=
EXTT2=
EXTT3=
EXTT4=
EXTT5=
EXTT6=
EXTT7=
EXTT8=
PLAYORDER=
